<?xml version="1.0" encoding="UTF-8" standalone="no"?>
<!-- Created with Inkscape (http://www.inkscape.org/) -->

<svg
   version="1.1"
   id="svg1"
   width="512"
   height="512"
   viewBox="0 0 512 512"
   xmlns="http://www.w3.org/2000/svg"
   xmlns:svg="http://www.w3.org/2000/svg">
  <defs
     id="defs1" />
  <g
     id="g1">
    <g
       id="g17"
       style="fill:#ffffff"
       transform="matrix(0.15977444,0,0,0.15977444,-166.69871,-171.06517)">
      <path
         id="path3"
         d="m 2812.3066,3386.9867 c -45.08,21.28 -88.5333,42.6266 -132.84,62.0133 -8.9333,3.9067 -22.52,3.6133 -31.5333,-0.3067 -33.5334,-14.5466 -66.0667,-31.4133 -98.9467,-47.44 -12,-5.84 -23.9467,-11.7466 -37.0133,-18.1733 -1.1067,54.2 11.6266,73.1867 59.72,88.4667 29.12,9.2533 58.8,16.7333 88.3466,24.6133 4.2,1.12 9.2667,0.9333 13.4934,-0.2267 27.5466,-7.5733 55.1333,-15.0666 82.4133,-23.5466 42.8533,-13.32 59.5067,-38.52 56.36,-85.4 z m -314.92,-266.4 c -0.8,0.4533 -1.5867,0.9067 -2.3867,1.36 0,59.44 -1.52,118.9333 0.92,178.28 0.7334,18.0533 7.2,42.4 19.9867,52.24 41.0533,31.5733 85.6933,58.7466 130.4133,85.1333 9.3867,5.5333 27.88,5.2267 37.2667,-0.4667 42.6133,-25.9066 83.7067,-54.3733 124.72,-82.8266 5.88,-4.08 11.2267,-12.8534 11.8667,-19.9067 6.2133,-68.48 11.3733,-137.0666 16.8266,-205.6133 -2.3333,-0.2133 -4.68,-0.4133 -7.0133,-0.6133 -8.12,49.68 -16.24,99.36 -24.2667,148.48 -96.3466,-15.9467 -190.2933,-15.5334 -284.24,0.3466 -8.16,-52.96 -16.1333,-104.68 -24.0933,-156.4133 z m -267.3867,520.1066 c -182.5466,-169.12 -306.8933,-374.6133 -410.5733,-598.0133 -40.2,43.9867 -57.76,94.3734 -62.9733,149.7334 -5.2,55.3333 2.8933,108.9333 25,160.2933 -119.6667,-161.0933 -161.76,-434.1467 77.5467,-676.3733 -34.32,1.3866 -108.9067,37.48 -166.4,87.7333 -48.0934,42.0267 -91.5734,89.32 -135.24,132.44 31.0533,-143.3733 70.04,-288.84 135.9066,-428.4667 -20.4266,-2.3466 -39.24,-4.5066 -61.6533,-7.08 62.8,-63.0266 140.16,-101.9466 207.6,-154.48 -113.2667,25.5867 -216.32,73.04 -310.44,141.1334 96.72,-146.4267 219.3333,-264.3867 381.5467,-338.6267 -0.5067,-1.92 -1,-3.8533 -1.4934,-5.7733 -47,-6.6667 -94,-13.3334 -144.56,-20.5067 51.48,-341.48 128.0134,-676.8933 241.08,-1004.3066 0,4.52 0.6267,9.16 -0.093,13.56 -14.5333,88.5466 5.6933,170.68 42.6266,250.8933 67.5467,146.7067 153.5867,280 273.84,389.4 14.8267,13.4933 30.96,25.5333 45.8667,38.9467 7.8,7.0133 14.8667,15.08 21.1867,23.48 19.4533,25.84 17.7333,51 5.5333,81.4133 -19.5467,48.7333 -32.0667,100.2933 -47.5733,150.6533 -0.9467,3.0933 -2.04,6.1467 -4.3867,13.1867 -158.4267,-172.48 -296.3733,-352.9333 -343.5066,-588.64 -5.3734,20.4933 -11.2534,40.8933 -15.9734,61.5467 -4.9066,21.4533 -9.6,43.04 -12.8,64.8133 -12.64,86.12 -21.48,172.32 -13.8933,259.76 6.8933,79.3867 24.6667,155.5333 59.44,227.2133 7.1066,14.64 4.4,22.48 -7.2267,31.6667 -38.3066,30.2666 -76.12,61.1733 -114.08,91.8933 -5.9733,4.8267 -11.6666,9.9867 -16.4666,17.04 78.2133,-24.16 156.8133,-43.2267 238.1333,-48.24 1.56,1.52 3.1066,3.04 4.6533,4.5733 -12.48,17.4534 -22.6133,37.3867 -37.9067,51.8534 -33.9333,32.1066 -69.76,62.3466 -106.0666,91.8133 -94.56,76.76 -170.5733,169.4 -235.68,271.6133 -10.3867,16.32 -20.6533,32.7334 -34.2933,54.3467 7.9866,-5.2133 11.48,-6.9733 14.36,-9.44 59.8266,-51.1067 127.2,-87.8133 203.4666,-108.1733 15.2934,-4.08 27.7734,-3.1334 41.2934,5.96 32.0933,21.5866 65.1599,41.72 97.9866,62.56 -10.08,-64.9867 -20.0933,-129.56 -30.12,-194.1334 1.64,-0.08 3.2667,-0.16 4.9067,-0.24 17.96,27.08 33.36,56.4 54.5066,80.7334 29.6934,34.1866 64.04,64.2933 95.56,96.96 11.2,11.6 22.72,24.3466 29.2134,38.76 13.8,30.6933 27.5866,60.84 52.9333,84.0533 33.7733,30.92 74.8,40.28 118.8267,37.84 15.9066,-0.88 24.8266,6.6 36.6133,15.1067 47.16,34.04 49.9733,84.4933 58.12,135.4533 14.4133,90.24 33.2,179.8 51.5067,269.3733 6.5333,31.9867 16.72,38.72 48.6266,38.8667 52.88,0.24 105.7734,0.24 158.6534,-0.3333 31.8133,-0.3467 42.7866,-7.3734 49.1866,-38.4534 18.7334,-90.8266 35.9867,-181.96 52.9734,-273.1333 4.3866,-23.56 5,-47.8133 8.6666,-71.5467 1.1467,-7.4133 5.3334,-15.2266 10.2667,-21.0133 13.8933,-16.2667 28.24,-32.2667 43.8,-46.9067 5.56,-5.24 15.3867,-9.4666 22.7333,-8.7466 91.28,8.96 144.4534,-36.7067 175.0934,-113 9.12,-22.72 23.44,-39.2134 41.6533,-54.64 57,-48.28 107.08,-102.6134 141.0933,-170.1334 1.9734,0.2267 3.9467,0.4534 5.92,0.6667 -3.4,32.1467 -5.52,64.5067 -10.52,96.4 -5.1466,32.8 -13.08,65.16 -20.0133,98.7867 32.1867,-20.8934 64,-40.48 94.5866,-61.8267 16.24,-11.32 30.9467,-12.6133 50.1334,-7.36 67.5466,18.4933 127.2533,51.7467 183.7866,91.8267 4.2667,3.0266 8.5734,6.0133 16.72,11.72 -2.96,-6.68 -3.84,-9.5334 -5.3733,-11.9867 -72.0267,-115.2933 -154.5333,-221.64 -261.8933,-306.8133 -25.1467,-19.9467 -50.6267,-39.5734 -74.6,-60.8667 -24.92,-22.1333 -46.72,-47.12 -57.12,-82.5333 86.44,7.2266 167.9466,25.1733 248.08,52.0533 -38.7867,-30.56 -77.6934,-60.96 -116.3334,-91.72 -35.9599,-28.6133 -35.8799,-28.8 -17.5466,-70.88 30.24,-69.36 45.9866,-142.3066 50.1466,-217.44 7.1067,-128.5333 -7.9866,-254.7466 -45.9066,-383.9066 -22.52,119.4266 -66.52,224.9066 -127.2533,323.8266 -60.4534,98.4534 -132.2267,187.8134 -214.2134,273.5867 -2.8133,-12.4267 -4.2533,-22.5734 -7.4133,-32.16 -17.56,-53.1733 -35.92,-106.08 -52.9733,-159.4133 -2.7067,-8.4534 -2.64,-19.4267 0.3333,-27.7467 10.68,-29.8133 33.1067,-50.0667 56.68,-70.6933 89.2533,-78.0934 165.52,-167.88 222.3867,-272.0667 36.0133,-66 66.16,-135.2933 97.04,-203.9733 26.4133,-58.7467 22.64,-121.3467 17.7866,-183.6134 -0.5066,-6.5733 -1.3733,-13.12 0.1867,-20.16 112.4,329.0134 191.68,666.0534 248.0266,1011.2267 -50.1866,7.1866 -98.5866,14.12 -146.9866,21.0666 -0.84,1.5734 -1.6934,3.16 -2.5334,4.7467 162.2,75.6133 287.5734,192.2667 384.8267,341.0267 -97.1067,-67.9734 -202.76,-116.5867 -320.7867,-145.8267 74.2267,51.8 145.7467,101.7067 217.2667,151.6133 -1.0533,2.2267 -2.12,4.4667 -3.1733,6.6934 -20,2.2 -40,4.3866 -61.8934,6.8 64.08,139.8 104.4134,285.8 137.8667,439.2666 -80.5067,-107.9333 -173.16,-192.2266 -301.9333,-233.7466 30.2133,39.9066 60.32,75.7333 86.08,114.4666 63.6266,95.68 96.0533,200.96 86.3466,316.6667 -7.6533,91.1467 -40.7733,173.36 -94.2933,247.9733 39.5067,-109.1466 39.8,-213.1466 -34.7333,-307.2666 -62.04,106.7733 -120.5334,213.8 -185.2,316.9599 -64.8267,103.4 -144.3867,195.7067 -235.2933,278.6267 1.6933,-3.48 3.24,-7.0267 5.0933,-10.4133 63.0133,-114.92 89.0533,-238.2 68.84,-367.2133 -6.3733,-40.6667 1.64,-69.12 23.2667,-98.8534 13.6933,-18.8133 27.24,-37.72 43.3333,-60.0133 21.9333,25.1333 41.88,48 63.3467,72.5867 23.2,-39.0667 46.1999,-77.8134 69.2266,-116.5467 9.9067,-16.6533 21.36,-32.5867 29.3867,-50.0933 7.4666,-16.2934 18.5866,-20.3467 34.92,-19.3867 17.8266,1.0267 35.76,0.2267 55.5466,0.2267 -6.5733,-66.5867 -24.0133,-127.8534 -57.7733,-183.44 -24.5867,-40.4667 -39.7067,-83.3467 -29.5467,-129.7067 7.6134,-34.68 23.5734,-67.56 36.2267,-101.0933 2.5333,-6.68 6.9733,-12.64 11.9733,-21.48 -25.7333,-3.9734 -49.2133,-8.2534 -72.8933,-10.72 -5.1467,-0.5334 -12.9733,4.0933 -16.1867,8.7066 -39.5999,56.8534 -69.1333,117.88 -67.7066,189.04 0.3867,19.4667 7.64,38.9334 12.9867,58.0667 1.36,4.88 6.6933,10.72 11.4533,12.28 59.5466,19.3733 88.3333,65.8133 107.8533,120.72 0.6667,1.8533 1.3867,3.7067 2.92,7.8267 -84.48,23.9333 -163.4933,59.8533 -237.32,107.4 -75.48,48.6133 -131.9466,113.8666 -172.4133,193.72 -1.6533,-0.5067 -3.2933,-1.0267 -4.9467,-1.5334 4.7734,-24.8 7.96,-50.04 14.6134,-74.32 31.1066,-113.3866 89,-209.68 183.1733,-282.3333 4.5733,-3.5467 10.1333,-8.0133 11.5733,-13.08 22.8,-80.2533 19.6667,-159.2 -12.7066,-236.3867 38.08,164.1467 -16.48,200.4 -136.6667,255.48 -22.0933,-31.92 -44.3733,-64.1066 -66.64,-96.28 -1.1067,0.24 -2.2,0.48 -3.3067,0.72 1.1734,9.12 2.2534,18.2534 3.52,27.3734 14.76,106.8533 -2.3066,208.7333 -45.4933,307.2533 -8.5333,19.4667 -12.8,42.08 -13.5333,63.4267 -1.84,54.16 0.093,108.44 -0.8134,162.6399 -0.4666,27.6267 -14.0933,51.72 -33.1733,69.6267 -23.24,21.8133 -51.52,38.16 -76.2133,58.5733 -14.24,11.7867 -27.8534,25.5334 -37.8534,40.9334 -11.12,17.1466 -25.6666,25.76 -44.4533,26.0133 -59.4933,0.8133 -119.0267,0.6667 -178.5333,0.2 -17.5067,-0.1333 -30.16,-8.3733 -41.6,-23.2 -16.12,-20.88 -35.72,-39.3467 -55.4534,-57.0267 -14.8533,-13.32 -32.6666,-23.2666 -48.4666,-35.5866 -32.88,-25.68 -50.3734,-58.8667 -49.36,-101.52 1.1333,-47.5067 2.3466,-95.08 0.92,-142.5467 -0.6,-19.9866 -4.7067,-41.1466 -12.6667,-59.4 -33.92,-77.8266 -52.16,-158.5733 -49.48,-243.44 0.9867,-31.2666 5.8533,-62.4133 9.4,-98.2 -24.84,35.9067 -47.6933,68.9467 -70.4133,101.8 -126.68,-59.6266 -168.3734,-94.84 -141.7867,-259.72 -7.5733,31.28 -17.24,62.2267 -22.2133,93.92 -7,44.5867 -4.6267,89.5067 7.7733,133.1734 2.9067,10.24 8.92,21.68 17.0533,28.0266 101.7734,79.4134 158.6,185.6534 186.9067,309.2667 2.8133,12.28 5.1067,24.6933 6.4267,38 -42.3734,-76.6933 -99.1867,-139.2133 -173.76,-185.72 -72.9067,-45.4667 -149.32,-82.52 -234.8667,-105.28 17.76,-57.4133 43.1067,-105.7333 102.4933,-128.1733 8.12,-3.0667 16.56,-11.1334 20.2934,-19.04 17.1866,-36.3067 16.3733,-75.3734 3.9866,-111.6134 -14.3333,-41.96 -35.2266,-81.72 -54.1733,-122.0266 -8.0533,-17.12 -21.5866,-23.48 -41.32,-17.7867 -17.1466,4.96 -35.2133,6.7467 -54.8266,10.28 8.72,16.5867 16.9066,30.9333 23.96,45.8133 34.44,72.6 36.7733,142.52 -10.12,212.68 -35,52.3734 -48.92,113.4267 -57.56,179.1334 23.88,0 46.24,0.6266 68.5466,-0.24 12.3734,-0.4934 18.88,4.2666 25.0267,14.92 68.1733,118.0266 136.0533,236.2266 206.12,353.1199 17.3466,28.9467 20.8,59.6267 27.1866,90.88 6.6534,32.5734 15.5467,64.9334 26.52,96.32 10.6934,30.5734 25.24,59.8 39.56,93"
         style="fill:#ffffff;fill-opacity:1;fill-rule:nonzero;stroke:none;stroke-width:0.133333" />
      <path
         id="path4"
         d="m 2560.0133,4262.6667 c -79.4,-74.2 -157.8667,-147.52 -237.7734,-222.2 20.2934,-17.8134 39.6667,-34.8267 60.5334,-53.1467 56.9066,52.6267 113.1733,104.68 171.1333,158.2933 83.3733,-81.3866 166.3333,-162.36 251.68,-245.68 -16.7333,57.2534 -32.4,111.5734 -48.68,165.6934 -1.8133,6.0266 -6.28,11.84 -10.8933,16.3466 -61.24,59.7867 -122.7334,119.3067 -186,180.6934"
         style="fill:#ffffff;fill-opacity:1;fill-rule:nonzero;stroke:none;stroke-width:0.133333" />
      <path
         id="path5"
         d="m 3072.9333,3382.0133 c -19.9334,141.4934 -93.36,251.7467 -189.0134,348.1334 -92.8,93.5066 -189.6133,183.0266 -284.92,274.04 -4.48,4.2666 -11.36,8.2666 -17.24,8.4266 -30.48,0.84 -61,0.3867 -96.5866,0.3867 33.9333,-30.0267 64.76,-56.16 94.3066,-83.6667 117.4667,-109.36 236.0134,-217.6266 351.1334,-329.4266 61.12,-59.36 110.52,-128.68 137.3466,-211.48 0.5734,-1.7867 2.4,-3.1734 4.9734,-6.4134"
         style="fill:#ffffff;fill-opacity:1;fill-rule:nonzero;stroke:none;stroke-width:0.133333" />
      <path
         id="path6"
         d="m 2854.4533,2702.56 c -1.7867,-70.12 11.4133,-128.1866 65.7866,-172.3733 31.48,-25.5867 61.4934,-54.2267 86.8134,-85.7867 25.0533,-31.2 43.3866,-67.8133 63.0933,-99.52 4.7067,40.5467 -3.5467,84.6267 -19.1067,130.96 95.7067,-45.2933 181.16,-100.6 247.32,-182.8666 1.7067,1.6266 3.4134,3.2533 5.12,4.88 -25.4533,33.7333 -48.8133,69.3333 -76.7733,100.8666 -71.1067,80.24 -150.6267,149.48 -256.2933,181.6 -44.2,13.44 -73.0667,45.0134 -94.7734,84.2134 -6.2933,11.3466 -12.64,22.6666 -21.1866,38.0266"
         style="fill:#ffffff;fill-opacity:1;fill-rule:nonzero;stroke:none;stroke-width:0.133333" />
      <path
         id="path7"
         d="m 2043.9733,2314.7067 c 65.8266,71.96 146.08,122.52 237.6533,165.7733 -19.04,-49.3733 -27.1467,-97.0533 -20.9467,-147.0266 17.56,75.8533 69.8134,126.8666 124.4667,176.1866 8.44,7.6134 16.5333,15.6667 25.4933,22.6267 52.4934,40.8133 63.84,97.1867 61.0534,165.1067 -6.2134,-11.0534 -10.24,-17.4134 -13.4934,-24.1467 -24.1733,-50.0133 -61.7733,-81.1333 -115.68,-99.8 -128.8666,-44.64 -222.9866,-133.4133 -294.08,-248.0533 -1.4,-2.2534 -2.5733,-4.6667 -3.6666,-7.08 -0.4934,-1.0934 -0.5467,-2.3867 -0.8,-3.5867"
         style="fill:#ffffff;fill-opacity:1;fill-rule:nonzero;stroke:none;stroke-width:0.133333" />
      <path
         id="path8"
         d="m 2258.1599,3393.24 c 61.6267,151.4267 180.72,253.0933 300.6,354.0267 22.9067,19.2933 46.4134,37.8533 71.2534,58.0666 -17.3467,15.4534 -33.5467,29.8934 -53.2,47.4 -60.36,-60.84 -121.6134,-119.4 -179.12,-181.4266 -57.2934,-61.8267 -99.52,-133.68 -123.8534,-215.0534 -6.1866,-20.72 -10.5066,-42 -15.68,-63.0133"
         style="fill:#ffffff;fill-opacity:1;fill-rule:nonzero;stroke:none;stroke-width:0.133333" />
      <path
         id="path9"
         d="m 2780.1599,2874.76 c 0,-118.2666 -0.16,-236.5333 0.4267,-354.8 0.04,-6.92 4.8933,-14.9466 9.7067,-20.56 56.12,-65.2933 114.3066,-128.96 156.6266,-204.8 5.4534,-9.76 10.6,-19.68 17.0534,-29.08 -3.7734,43.9467 -18.4134,84.64 -37.7867,123.6 -10.6667,21.44 -21.44,43.6 -36.48,61.9067 -34.5733,42.08 -52.76,89.96 -60.72,143.0533 -12.7467,85 -26.52,169.8267 -39.92,254.72 -1.3333,8.48 -3.0667,16.8934 -4.6133,25.3467 -1.4267,0.2 -2.8667,0.4133 -4.2934,0.6133"
         style="fill:#ffffff;fill-opacity:1;fill-rule:nonzero;stroke:none;stroke-width:0.133333" />
      <path
         id="path10"
         d="m 2365.5599,2267.48 c 43.7067,87.8267 109.0934,158.5067 172.2134,230.9334 5.2133,5.9866 10.3066,14.7466 10.32,22.2266 0.3333,113.08 -0.2,226.16 -0.5734,339.2534 -0.013,1.6533 -0.5866,3.32 -3.2933,5.1866 -6.6667,-46.7466 -11.9867,-93.72 -20.2933,-140.1733 -12.2134,-68.24 -26.2267,-136.1867 -40.3734,-204.0667 -1.9333,-9.28 -8.1866,-18.1466 -14,-26.0533 -44.6,-60.6133 -84.2533,-123.64 -99.6533,-198.8267 -1.92,-9.4 -2.92,-18.9866 -4.3467,-28.48"
         style="fill:#ffffff;fill-opacity:1;fill-rule:nonzero;stroke:none;stroke-width:0.133333" />
      <path
         id="path11"
         d="m 3138.7066,2103.72 c -8.7067,-28.0133 -17.08,-52.4 -23.4,-77.32 -1.4133,-5.5466 2.7333,-14.48 7.16,-19.1733 17.3467,-18.4266 35.0667,-36.6533 54.04,-53.3733 45.72,-40.3067 78.32,-88.72 95.1867,-147.48 0.5466,-1.88 1.4133,-3.7333 2.44,-5.3867 0.64,-1.0133 1.8933,-1.64 3.5466,-3 -5.6666,119.9067 -62.2666,215.5333 -138.9733,305.7333"
         style="fill:#ffffff;fill-opacity:1;fill-rule:nonzero;stroke:none;stroke-width:0.133333" />
      <path
         id="path12"
         d="m 2055.9199,1810.6667 c 24.5067,69.4534 68.1067,123.88 125.24,168.3467 3.1467,2.44 5.6934,5.6667 8.7334,8.2533 19.0533,16.2533 26.48,34.9333 16.4266,59.88 -6.4133,15.92 -9.4533,33.2133 -15.0666,53.8267 -74.44,-85.04 -125.0667,-178.2133 -135.3334,-290.3067"
         style="fill:#ffffff;fill-opacity:1;fill-rule:nonzero;stroke:none;stroke-width:0.133333" />
      <path
         id="path13"
         d="m 2670.1866,1823.2934 c 0,228.8266 0,457.64 0,686.4666 -1.6933,0 -3.3867,0 -5.08,0 -11.8933,-228.8266 -14,-457.6533 -1.16,-686.4666 2.08,0 4.16,0 6.24,0"
         style="fill:#ffffff;fill-opacity:1;fill-rule:nonzero;stroke:none;stroke-width:0.133333" />
      <path
         id="path14"
         d="m 2908.3866,2674.36 c 9.88,-12.36 19.5867,-24.5333 29.2933,-36.6933 35.7334,25.52 59.6267,16.4133 70.8134,-26.32 1.32,-5.0533 4.5066,-11.3467 8.7066,-13.64 18.3334,-10 37.3467,-18.7333 55.7334,-27.7467 -19.08,87.2667 -62.9334,115.3467 -164.5467,104.4"
         style="fill:#ffffff;fill-opacity:1;fill-rule:nonzero;stroke:none;stroke-width:0.133333" />
      <path
         id="path15"
         d="m 2422.0799,2677.6534 c -23.7066,-1.48 -48.2666,-3.5334 -72.88,-4.4134 -34.0666,-1.2133 -55,-21.56 -70.64,-48.5066 -8.2,-14.1334 -13.3466,-30.04 -21.6533,-49.2534 22.6533,9.1734 41,16.6 60.7467,24.5867 0.7733,20.44 4.64,41.9333 28.0533,50.9467 18.0667,6.96 33.9333,0.1466 45.8933,-14.2534 10.52,14.1067 20.5467,27.56 30.48,40.8934"
         style="fill:#ffffff;fill-opacity:1;fill-rule:nonzero;stroke:none;stroke-width:0.133333" />
      <path
         id="path16"
         d="m 2615.9066,3394.9467 c 1.1867,-42.6934 -31.56,-47.3734 -60.2,-56.4934 67.9733,-6.4933 76.8667,17.1067 60.2,56.4934"
         style="fill:#ffffff;fill-opacity:1;fill-rule:nonzero;stroke:none;stroke-width:0.133333" />
      <path
         id="path17"
         d="m 2775.1999,3339.28 c -28.3466,9.7333 -60.64,12.92 -59.6533,56.5733 -2.4933,-1.2133 -4.9867,-2.4133 -7.4933,-3.6266 1.2666,-14.0134 -2.6134,-32.5067 4.8666,-41.12 15.68,-18.08 40.1067,-14.6 62.28,-11.8267"
         style="fill:#ffffff;fill-opacity:1;fill-rule:nonzero;stroke:none;stroke-width:0.133333" />
    </g>
  </g>
</svg>
